#!OML:ASF F:\VICON\USERDATA\INSTALL\rory3\rory3.ASF
:FULLY-SPECIFIED
:DEGREES
63
root 0.6211002681118964 17.868449669044416 19.423256690677064 -3.160108245719839 -1.772169308963617 2.1792532034322156
lfemur 0.6052932755076537 -3.1367286799981073 -27.026110393946198
ltibia 24.902808025737734
lfoot -7.015577287052356 0.7275943884726142
ltoes -4.793714076076481
rfemur -25.46395305450119 1.3421935447574267 20.54642865254938
rtibia 59.91574526681623
rfoot -4.686967780171061 -8.399164344703502
rtoes 1.0052457513198583
lowerback 9.880082252874235 -0.3547683475461393 -3.1653884813200994
upperback 0.7187001243693357 0.3213141256356383 0.845235460866362
thorax -5.141306852247654 0.22510491749454914 1.2888300296025663
lowerneck -16.649365405659818 -2.9215875472471953 -2.2829244751061624
upperneck 20.762743511999396 -3.782150564865933 1.3136518316714354
head 9.452336051505677 -1.729641229824406 0.23009608328221098
lclavicle -1.9576442141916937e-15 8.913788482583504e-16
lhumerus -28.613100127206604 -1.6674474802892452 82.65118873717334
lradius 21.048438647846574
lwrist 4.658431593160079
lhand -26.997887527305213 23.469284157704248
lfingers 7.12502
lthumb -0.4208780170090888 53.239672127513394
rclavicle -1.9512230622054378e-15 9.08631068181791e-16
rhumerus -30.371846562625507 -17.810448726128634 -79.36082604070556
rradius 25.253898704517148
rwrist 5.601985145784447
rhand -17.074631970593025 22.813405588244766
rfingers 7.12502
rthumb 9.066103909167449 -6.91635041259785
64
root 0.5868175218858138 17.860170828317685 20.320074998332466 -2.5331976388841717 -1.135347213051389 2.632524034792223
lfemur 3.4647371782990675 -2.867652825120323 -27.313918101366596
ltibia 21.68746320371755
lfoot -5.881511671728878 1.0924229143182693
ltoes -4.52719715909937
rfemur -26.38223705915255 2.0559711496784043 19.835200553725382
rtibia 50.32011331442403
rfoot -4.89942460539314 -8.738455127919915
rtoes -0.03939725651656989
lowerback 9.71786691609349 -0.615881728741669 -3.6353958314743213
upperback 0.7016490084799405 -0.1502933288765027 0.9036186107346603
thorax -5.065072587333254 -0.062149379624107715 1.7733476743392351
lowerneck -16.657779568408134 -2.917289276263126 -2.2954379292096427
upperneck 20.747293157480435 -3.7899637453283495 1.3515173450986193
head 9.447646600133618 -1.7341690228578113 0.23669644805541096
lclavicle -1.9576442621708565e-15 8.913787950738188e-16
lhumerus -28.157087190765537 -2.3686668835732654 82.62185788203861
lradius 21.689327314395275
lwrist 4.852028043746922
lhand -26.999980708669057 23.630226948258414
lfingers 7.12502
lthumb -0.44265239033542286 53.35230329542566
rclavicle -1.9512231432585683e-15 9.086309911620712e-16
rhumerus -30.705739283754802 -18.810424858509442 -78.81874141289694
rradius 24.890666811352773
rwrist 6.282913849668035
rhand -17.07008737944787 22.838804380180143
rfingers 7.12502
rthumb 9.058912326575397 -6.880832170568246
65
root 0.5380070455716434 17.83388140715598 21.073063683259264 -1.9314457575948574 -0.4469807468712468 3.0261801701441926
lfemur 6.562720701335417 -2.555278331612278 -27.52231214787548
ltibia 17.22032638498373
lfoot -5.281131226253778 0.6635776835586669
ltoes -4.100810985292345
rfemur -26.423592632309706 3.3862307878115683 18.771630155025637
rtibia 38.668445705482355
rfoot -4.84036252411343 -9.123418359157451
rtoes -1.0853742276809153
lowerback 9.55029375575462 -0.8361059258992319 -3.9496262626063503
upperback 0.6583596970635275 -0.5656497890595202 0.9415307506549788
thorax -4.969508181032576 -0.3196625542543584 2.2404691759213677
lowerneck -16.64247117641135 -2.92626540136294 -2.308127190388112
upperneck 20.731009545440937 -3.8089923950785503 1.3903262957888842
head 9.438202486788398 -1.7459812579215515 0.24519738228497956
lclavicle -1.95764425368852e-15 8.913786869820424e-16
lhumerus -27.87700136439721 -2.7518233959537026 82.54553722227567
lradius 22.453621489154067
lwrist 5.06748794577483
lhand -26.996123284651556 23.804694634402377
lfingers 7.12502
lthumb -0.4584185771081949 53.483953327173886
rclavicle -1.9512231293053863e-15 9.086310046620703e-16
rhumerus -30.96344942385491 -19.758568998143655 -78.24761722283272
rradius 24.382094669351304
rwrist 7.250168248411664
rhand -17.073990020865654 22.842912051107135
rfingers 7.12502
rthumb 9.034717421289091 -6.885039530665457
66
root 0.47342492541293113 17.77591106396693 21.71291723252336 -1.5245684341554055 0.21776581346644486 3.3099173053913904
lfemur 9.61483898702707 -2.614922663640608 -27.549063666298515
ltibia 12.10538771338431
lfoot -4.673050903604222 0.2926617939434586
ltoes -3.7420474798307897
rfemur -26.034644325094707 5.006555962594273 17.53115335834523
rtibia 26.71286819695319
rfoot -4.979619613457738 -9.72440764774732
rtoes -1.9155097188862773
lowerback 9.429108392836824 -1.01855911943984 -4.063454926220526
upperback 0.6138408657381099 -0.8870883881511107 0.9962042578769844
thorax -4.871347708430996 -0.5455686558338437 2.6736306824550726
lowerneck -16.605056886549203 -2.9470890296669 -2.3210867600542824
upperneck 20.720013304185745 -3.829703657239205 1.4184862659997872
head 9.436921493861647 -1.7619727643559278 0.25932968411670143
lclavicle -1.9576441554230547e-15 8.913787948419043e-16
lhumerus -27.644192974675068 -2.754937261918225 82.48279867530324
lradius 23.3333685385358
lwrist 5.331029208761132
lhand -26.986316441711978 23.996539633639646
lfingers 7.12502
lthumb -0.4691836199638399 53.63314239628035
rclavicle -1.951223234596215e-15 9.08630905220566e-16
rhumerus -31.30030000103789 -20.747240420562747 -77.68666693604669
rradius 23.77089107363116
rwrist 8.42091084862997
rhand -17.0860122737223 22.836994338234305
rfingers 7.12502
rthumb 9.004650242404464 -6.908476829836429
67
root 0.3973940489915103 17.69548932875214 22.379639778754544 -1.4154936957261683 0.6308073493607931 3.3015794094743627
lfemur 11.71580891536292 -3.170184099453354 -27.195841087062238
ltibia 9.98485650481301
lfoot -5.070404671356071 -1.0402155937578166
ltoes -3.457832963633963
rfemur -25.56867767064605 5.9659073634962665 17.07025321140923
rtibia 17.485482018717697
rfoot -5.084006164981203 -9.96453513234208
rtoes -2.3064807857837892
lowerback 9.380906311522677 -1.1474952309501543 -3.8872039421010465
upperback 0.5796879054303489 -1.129016572470086 1.0766981086314904
thorax -4.782296248143017 -0.7343806505789483 3.056463021639054
lowerneck -16.56411058893116 -2.972890212370087 -2.3334195705578415
upperneck 20.751566513756742 -3.8435995978907327 1.4431376945046646
head 9.44591880032684 -1.7761215862047757 0.27560255091060193
lclavicle -1.9576442287783255e-15 8.913787866058975e-16
lhumerus -27.51625396857454 -2.480848136694508 82.46784910823487
lradius 24.31018751338219
lwrist 5.627037255277829
lhand -26.977663371026747 24.179096131240673
lfingers 7.12502
lthumb -0.4789157135523151 53.78428011352949
rclavicle -1.9512232133422636e-15 9.086309220826856e-16
rhumerus -31.495964373661295 -21.44763214108759 -77.15765178617787
rradius 23.063639697873704
rwrist 9.715130239164054
rhand -17.106530196289896 22.832460492790187
rfingers 7.12502
rthumb 8.973781451059926 -6.941965725291207
68
root 0.31428757622984277 17.627879725702037 23.035359178849895 -1.592204602299752 0.6696224166991844 2.886703585829102
lfemur 13.062877192952957 -3.9670582038897564 -26.637693697259394
ltibia 11.018951654464793
lfoot -4.539473892898859 -1.289399051780212
ltoes -3.3367542901829683
rfemur -25.249044187873295 5.516647035450435 17.99689307069241
rtibia 15.121194067679106
rfoot -4.8377492455067586 -9.643571838298678
rtoes -2.0063127527703393
lowerback 9.381064347039752 -1.2236472055219818 -3.4167290348996815
upperback 0.5581723564645595 -1.305807427615318 1.200669430800258
thorax -4.7174714796501585 -0.8904461752605413 3.358667420206686
lowerneck -16.534844364055147 -2.9979802150311263 -2.3538097626230616
upperneck 20.80418244948591 -3.840791019988326 1.4478274089111454
head 9.452377782843318 -1.7866758264718656 0.2845371762417401
lclavicle -1.9576441158818207e-15 8.913789260909965e-16
lhumerus -27.594204700319697 -2.0345809744586036 82.52656733761994
lradius 25.352068690666925
lwrist 5.907492469194758
lhand -26.966012819510073 24.35708158985748
lfingers 7.12502
lthumb -0.4863139715163553 53.93526935467935
rclavicle -1.9512231657855544e-15 9.086309622127866e-16
rhumerus -31.554911392957052 -21.908902323375795 -76.72712783146282
rradius 22.266559593832994
rwrist 11.003702103472126
rhand -17.13543297854379 22.831287134565535
rfingers 7.12502
rthumb 8.945893655070005 -6.9687867504354015
69
root 0.22523454622812697 17.609051169283802 23.52594869217937 -1.9474964734756273 0.5056668769989439 1.9862422835667988
lfemur 13.800457455445933 -5.014808746416406 -25.92984730051291
ltibia 13.117041146473188
lfoot -3.253626308870343 -1.4908481222371441
ltoes -3.1446844969310743
rfemur -25.155921513019422 4.880621163755058 19.355318717021067
rtibia 19.055749111950565
rfoot -4.406735546841658 -8.868340280839183
rtoes -0.9677880910795751
lowerback 9.39641257116821 -1.2592734814816393 -2.6908704435509927
upperback 0.5417946551888494 -1.4306143723794111 1.3817775264483532
thorax -4.680340781349746 -1.0066914012595136 3.5655086005005163
lowerneck -16.535039887873104 -3.0133371814926377 -2.3709169267080528
upperneck 20.833697518833024 -3.8252846652296224 1.4388332922874554
head 9.454378712502029 -1.7911928964092345 0.28575713173195993
lclavicle -1.95764413983807e-15 8.9137885059545e-16
lhumerus -27.861382851306857 -1.5110304665231051 82.67825612827704
lradius 26.413813804162505
lwrist 6.110402778150244
lhand -26.957110672165566 24.5122036213852
lfingers 7.12502
lthumb -0.4940188837392514 54.07336041861923
rclavicle -1.9512232050366375e-15 9.08630925634377e-16
rhumerus -31.579102571629036 -22.23050860998478 -76.37322069972541
rradius 21.459629345427537
rwrist 12.073583669627158
rhand -17.170466878993953 22.833853880244188
rfingers 7.12502
rthumb 8.921964817630698 -6.979661567448397
